<?xml version="1.0" encoding="utf-8"?>
<!-- Generator: Adobe Illustrator 21.0.0, SVG Export Plug-In . SVG Version: 6.00 Build 0)  -->
<svg version="1.1" id="Layer_1" xmlns="http://www.w3.org/2000/svg" xmlns:xlink="http://www.w3.org/1999/xlink" x="0px" y="0px"
	 viewBox="0 0 255 65" style="enable-background:new 0 0 255 65;" xml:space="preserve">
<style type="text/css">
	.st0{enable-background:new    ;}
	.st1{fill:#ED1865;}
	.st2{fill:#fff;}
</style>
<g class="st0">
	<path class="st1" d="M4.9,53V14.5h16.5c3.5,0,6.4,1,8.7,3.1s3.4,4.4,3.4,7.1c0,1-0.1,2-0.4,2.9s-0.7,1.7-1.1,2.3
		c-0.4,0.6-0.9,1.1-1.3,1.6c-0.4,0.4-0.8,0.7-1.1,0.9l-0.5,0.3c0.2,0.1,0.4,0.2,0.7,0.3c0.3,0.1,0.8,0.5,1.5,1s1.4,1.1,1.9,1.7
		c0.6,0.6,1.1,1.5,1.5,2.6c0.5,1.1,0.7,2.2,0.7,3.5c0,3.1-1.2,5.7-3.7,7.9S26.2,53,22.4,53H4.9z M13.2,21.4v8.3h7.7
		c1.4,0,2.4-0.4,3.2-1.1s1.2-1.8,1.2-3s-0.4-2.3-1.2-3s-1.9-1.1-3.2-1.1H13.2z M22,46.1c1.5,0,2.8-0.5,3.7-1.4
		c1-0.9,1.5-2.1,1.5-3.5s-0.5-2.6-1.5-3.5s-2.2-1.4-3.7-1.4h-8.8v9.9H22z"/>
	<path class="st1" d="M62.8,49.3c-2.8,2.8-6.2,4.2-10,4.2s-7.2-1.4-10-4.2s-4.3-6.1-4.3-9.8s1.4-7,4.3-9.8s6.2-4.2,10-4.2
		s7.2,1.4,10,4.2c2.8,2.8,4.3,6.1,4.3,9.8S65.7,46.5,62.8,49.3z M48.1,44.6c1.3,1.4,2.9,2.1,4.6,2.1s3.3-0.7,4.6-2.1
		c1.3-1.4,2-3.1,2-5.1c0-2-0.7-3.7-2-5.1c-1.3-1.4-2.9-2.1-4.6-2.1s-3.3,0.7-4.6,2.1c-1.3,1.4-2,3.1-2,5.1
		C46.2,41.5,46.8,43.2,48.1,44.6z"/>
	<path class="st1" d="M86.8,26.5c1.3,0.6,2.3,1.3,2.8,1.9l0.8,1V14.5h7.4V53h-7.4v-3.3c-0.1,0.1-0.2,0.2-0.3,0.4
		c-0.2,0.2-0.5,0.5-1,0.9c-0.5,0.4-1,0.8-1.6,1.2c-0.6,0.3-1.3,0.7-2.2,0.9c-0.9,0.3-1.9,0.4-2.8,0.4c-3.5,0-6.5-1.4-9.1-4.1
		c-2.6-2.7-3.9-6-3.9-10s1.3-7.2,3.9-10c2.6-2.7,5.6-4.1,9.1-4.1C84,25.5,85.5,25.8,86.8,26.5z M88.5,44.9c1.3-1.4,1.9-3.2,1.9-5.3
		s-0.6-3.9-1.9-5.3s-2.8-2.1-4.7-2.1s-3.4,0.7-4.7,2.1s-1.9,3.2-1.9,5.3s0.6,3.9,1.9,5.3S82,47,83.9,47S87.2,46.3,88.5,44.9z"/>
	<path class="st1" d="M111.1,52.7L100.6,26h7.7l6.3,17.9L121,26h7.7l-10.7,28.6c-2.5,6.6-5.9,9.9-10.4,9.9c-0.8,0-1.6-0.1-2.4-0.2
		s-1.4-0.3-1.7-0.4l-0.5-0.2v-6.6c0.7,0.4,1.6,0.5,2.7,0.5c2.2,0,3.8-1,4.7-3L111.1,52.7z"/>
</g>
<g class="st0">
	<path class="st2" d="M132.8,14.5h17.1c3.8,0,7,1.2,9.5,3.7c2.5,2.4,3.7,5.4,3.7,9c0,1.5-0.2,3-0.7,4.3s-1.1,2.4-1.7,3.2
		c-0.7,0.8-1.3,1.5-2,2.1c-0.7,0.6-1.3,1-1.7,1.2l-0.7,0.4l8.2,14.6h-8.8l-7.4-13.5H141V53h-8.3V14.5z M153.3,23.4
		c-1-1-2.2-1.5-3.7-1.5H141v10.2h8.5c1.5,0,2.8-0.5,3.7-1.4c1-1,1.5-2.1,1.5-3.5C154.8,25.6,154.3,24.4,153.3,23.4z"/>
	<path class="st2" d="M191.5,49.3c-2.8,2.8-6.2,4.2-10,4.2c-3.8,0-7.2-1.4-10-4.2s-4.3-6.1-4.3-9.8s1.4-7,4.3-9.8s6.2-4.2,10-4.2
		c3.8,0,7.2,1.4,10,4.2c2.8,2.8,4.3,6.1,4.3,9.8S194.3,46.5,191.5,49.3z M176.8,44.6c1.3,1.4,2.9,2.1,4.6,2.1c1.8,0,3.3-0.7,4.6-2.1
		c1.3-1.4,2-3.1,2-5.1c0-2-0.7-3.7-2-5.1c-1.3-1.4-2.9-2.1-4.6-2.1c-1.8,0-3.3,0.7-4.6,2.1c-1.3,1.4-2,3.1-2,5.1
		C174.8,41.5,175.5,43.2,176.8,44.6z"/>
	<path class="st2" d="M202.5,29.7c2.9-2.8,6.3-4.2,10.3-4.2c1.4,0,2.7,0.2,4,0.6c1.3,0.4,2.3,0.8,3.1,1.4s1.5,1.1,2.1,1.6
		c0.6,0.5,1.1,1,1.4,1.4l0.4,0.6l-4.7,4.7c-0.1-0.3-0.4-0.6-0.7-1c-0.3-0.4-1-0.9-2.1-1.6c-1.1-0.7-2.3-1-3.5-1c-2,0-3.6,0.7-5,2.2
		s-2.1,3.2-2.1,5.3s0.7,3.8,2.1,5.3c1.4,1.5,3.1,2.2,5,2.2c1.2,0,2.4-0.3,3.5-0.9c1.1-0.6,1.9-1.2,2.4-1.8l0.7-0.9l4.4,4.7
		c-0.1,0.1-0.3,0.3-0.4,0.6c-0.2,0.3-0.6,0.7-1.3,1.3c-0.7,0.6-1.4,1.2-2.2,1.6c-0.8,0.5-1.8,0.9-3.1,1.3c-1.3,0.4-2.6,0.6-4,0.6
		c-4,0-7.4-1.4-10.3-4.2c-2.9-2.8-4.3-6.1-4.3-9.8S199.6,32.5,202.5,29.7z"/>
	<path class="st2" d="M235.1,46.4V53h-7.4V14.5h7.4V37l9.6-11h8.5L243,37.6L253.7,53h-8.2l-7.2-10.4L235.1,46.4z"/>
</g>
</svg>
